# xmcd CD database file
#
# Track frame offsets:
#	182
#	38777
#	84730
#	125217
#	158637
#	182705
#	199790
#	210765
#	250860
#	276152
#	320337
#
# Disc length: 4658 seconds
#
# Revision: 1
# Processed by: cddbd v1.5.2PL0 Copyright (c) Steve Scherf et al.
# Submitted via: CDex 1.51
#
DISCID=9512300b
DTITLE=Erroll Garner - 1944
DYEAR=1995
DGENRE=Jazz
TTITLE0=The Clock Stood Still
TTITLE1=Floating On A Cloud
TTITLE2=Cloudburst
TTITLE3=Autumn Mood
TTITLE4=Variations On A Theme (Parts 1&2)
TTITLE5=On The Sunny Side Of The Street
TTITLE6=I Surrender, Dear
TTITLE7=Overture To Dawn
TTITLE8=Erroll's Concerto
TTITLE9=Yesterdays
TTITLE10=All The Things You Are (Parts 1&2)
EXTD=YEAR: 1995
EXTT0=
EXTT1=
EXTT2=
EXTT3=
EXTT4=
EXTT5=
EXTT6=
EXTT7=
EXTT8=
EXTT9=
EXTT10=
PLAYORDER=
